# xmcd
#
# Track frame offsets: 
#        150
#        20700
#        35740
#        54621
#        91241
#        115185
#        138818
#        160023
#        185864
#        212361
#        229944
#        246209
#
# Disc length: 3654 seconds
#
# Revision: 0
# Processed by: cddbd v1.5.2PL0 Copyright (c) Steve Scherf et al.
# Submitted via: ExactAudioCopyFreeDBPlugin 1.0
#
DISCID=a20e440c
DTITLE=To Be Continued Brass Band - The Return Of The Mass Appeal
DYEAR=2013
DGENRE=New Orleans Brass Band
TTITLE0=Encore
TTITLE1=Summertime
TTITLE2=Everyday People
TTITLE3=Mess With You
TTITLE4=Trouble
TTITLE5=Groovin
TTITLE6=All The Money In The World
TTITLE7=Shame
TTITLE8=Tell Me I'm Not Dreaming
TTITLE9=Tornado
TTITLE10=I Wanna Dance With Somebody
TTITLE11=Just a Closer Walk With Thee
EXTD=
EXTT0=
EXTT1=
EXTT2=
EXTT3=
EXTT4=
EXTT5=
EXTT6=
EXTT7=
EXTT8=
EXTT9=
EXTT10=
EXTT11=
PLAYORDER=
